<svg xmlns="http://www.w3.org/2000/svg" width="597.512" height="197.496" viewBox="0 0 597.512 197.496">
  <g id="footer_logo-sp" transform="translate(-80.088 -15972.279)">
    <path id="合体_2" data-name="合体 2" d="M16928.289,19303.527l-79.613,45.969v-78.338L16713,19349.5v-110.553h103.426L16713,19179.66V19152l135.674,78.33V19152l79.619,45.963,79.617-45.963v27.248l-123.838,71.494,32.57,18.8,91.268,52.688v27.262Zm-191.652,5.105,79.791-46.07h-79.791Zm135.635-.023,32.414-18.711-32.414-18.713Zm0-78.32,32.414-18.719-32.414-18.707Z" transform="translate(-16632.914 -3179.721)" fill="#d7003a"/>
    <path id="パス_135" data-name="パス 135" d="M10.752-9.8A23.687,23.687,0,0,1,1.008-2.016,6.817,6.817,0,0,1,2.352-.084c.224.476.336.672.5.672A1.55,1.55,0,0,0,3.5.28,26.532,26.532,0,0,0,12.376-7.9c-.028,4.116-.168,8.484-.168,9.772,0,.28.028.308.308.308h2.52c.28,0,.308-.028.308-.308,0-1.372-.084-5.684-.14-9.828A25.4,25.4,0,0,0,24.528.336a2.092,2.092,0,0,0,.672.28c.168,0,.28-.168.476-.644a7.914,7.914,0,0,1,1.456-2.044A25.939,25.939,0,0,1,16.576-9.8h5.6c2.548,0,3.416.056,3.584.056.308,0,.336-.028.336-.308v-2.156c0-.28-.028-.308-.336-.308-.168,0-1.036.056-3.584.056H15.288v-3.976h4.48c2.716,0,3.7.056,3.864.056.252,0,.28-.028.28-.308V-18.9c0-.28-.028-.308-.28-.308-.168,0-1.148.056-3.864.056h-4.48v-1.036a9.777,9.777,0,0,1,.14-2.044,4.553,4.553,0,0,0,.2-.728c0-.14-.168-.28-.448-.308-.952-.112-2.044-.168-3.08-.2a16.328,16.328,0,0,1,.2,3.332v.98h-4c-2.716,0-3.7-.056-3.864-.056-.252,0-.28.028-.28.308v2.212c0,.28.028.308.28.308.168,0,1.148-.056,3.864-.056h4v3.976H5.824c-2.52,0-3.416-.056-3.584-.056-.28,0-.308.028-.308.308v2.156c0,.28.028.308.308.308.168,0,1.064-.056,3.584-.056Zm31.64,1.4a22.918,22.918,0,0,1-9.324,6.888A7.256,7.256,0,0,1,34.384.336c.252.476.336.672.532.672a2.092,2.092,0,0,0,.672-.28,24.3,24.3,0,0,0,8.736-7.644c-.028,3.948-.14,7.756-.14,8.848,0,.28.028.308.308.308h2.436c.28,0,.308-.028.308-.308,0-1.036-.084-4.956-.14-9.016a24.72,24.72,0,0,0,9.3,7.9,2.031,2.031,0,0,0,.644.28c.2,0,.28-.2.5-.7A7.914,7.914,0,0,1,59-1.652C54.516-3.528,51.464-5.544,48.944-8.4h5.348c2.52,0,3.388.056,3.556.056.28,0,.308-.028.308-.336v-2.044c0-.28-.028-.308-.308-.308-.168,0-1.036.056-3.556.056H51.884c.644-.98,1.148-1.848,1.68-2.772a3.066,3.066,0,0,1,.7-1.008.386.386,0,0,0,.252-.364c0-.2-.112-.336-.448-.448a26.094,26.094,0,0,0-2.828-.7,7.489,7.489,0,0,1-.448,1.484,23.477,23.477,0,0,1-1.848,3.808H47.18v-5.992h5.572c2.688,0,3.584.056,3.752.056.308,0,.336-.028.336-.308v-2.072c0-.28-.028-.308-.336-.308-.168,0-1.064.056-3.752.056H47.18v-.616a9.255,9.255,0,0,1,.14-2.016,3.545,3.545,0,0,0,.168-.784c0-.112-.112-.252-.392-.28-.98-.112-2.016-.168-3.024-.2a18.292,18.292,0,0,1,.2,3.3v.588H39.116c-2.688,0-3.584-.056-3.752-.056-.28,0-.308.028-.308.308v2.072c0,.28.028.308.308.308.168,0,1.064-.056,3.752-.056h5.152v5.992h-6.72c-2.52,0-3.388-.056-3.556-.056-.28,0-.308.028-.308.308V-8.68c0,.308.028.336.308.336.168,0,1.036-.056,3.556-.056Zm-4.928-7.056c-.336.112-.392.2-.224.476a17.156,17.156,0,0,1,1.68,3.444c.112.28.168.308.532.168l2.016-.756c.308-.112.392-.168.28-.448a20.717,20.717,0,0,0-1.764-3.444c-.168-.252-.252-.252-.56-.14ZM81.816-6.972a11.685,11.685,0,0,0-2.24-.224c-2.828,0-4.9,1.652-4.9,3.948,0,2.408,1.792,3.92,5.012,3.92,3.3,0,4.9-1.288,5.124-3.64a16.627,16.627,0,0,1,3.024,2.24.387.387,0,0,0,.252.14.339.339,0,0,0,.252-.168,15.126,15.126,0,0,0,1.288-2.156c.14-.308.112-.392-.14-.56A18.324,18.324,0,0,0,84.84-6.16c-.14-2.408-.2-4.368-.2-7.5a31.552,31.552,0,0,0,4.312-.588c.2-.028.308-.168.308-.42A11.194,11.194,0,0,0,89.1-16.66c-.056-.308-.112-.42-.448-.336-1.2.2-2.66.392-3.976.5,0-1.288,0-2.016.056-2.968a3.159,3.159,0,0,1,.224-.98,1.2,1.2,0,0,0,.168-.476c0-.252-.2-.392-.5-.476a15.587,15.587,0,0,0-3.388-.532,11.543,11.543,0,0,1,.364,2.744c0,1.036.028,1.932.028,2.94a40.505,40.505,0,0,1-6.384-.084,17.154,17.154,0,0,0,.2,2.548c.028.28.14.364.5.364a56.62,56.62,0,0,0,5.768.028C81.732-11.172,81.76-9.128,81.816-6.972Zm.056,2.66a3.943,3.943,0,0,1,.028.56c0,1.008-.9,1.82-2.3,1.82-1.652,0-2.268-.532-2.268-1.4s.784-1.344,2.1-1.344A7.8,7.8,0,0,1,81.872-4.312ZM68.88-21.868a14.09,14.09,0,0,1-.2,3.3A60.821,60.821,0,0,0,67.536-7.952a26.082,26.082,0,0,0,1.2,8.54c.14.392.252.42.56.336A11.727,11.727,0,0,0,71.4.448c.252-.084.364-.168.336-.364A5.288,5.288,0,0,1,71.764-1.4a16.6,16.6,0,0,1,1.428-4.256A.813.813,0,0,0,73.36-6.1a.6.6,0,0,0-.168-.392,7.446,7.446,0,0,1-.98-1.764c-.588,1.4-1.176,2.6-1.736,3.892-.084-1.176-.084-2.464-.084-3.584a55.6,55.6,0,0,1,1.4-10.192,5.683,5.683,0,0,1,.5-1.54,1.429,1.429,0,0,0,.2-.616c0-.224-.112-.392-.42-.56A21.864,21.864,0,0,0,68.88-21.868ZM99.036-19.46a15.009,15.009,0,0,1,.336,3.668,50.762,50.762,0,0,0,.672,8.148C100.8-2.912,103.1-.336,105.28-.336c1.96,0,3.7-1.512,4.76-4.368a.857.857,0,0,0-.2-1.036A10.7,10.7,0,0,1,108.052-7.9C106.96-4.984,106.26-4,105.364-4c-1.176,0-1.9-1.9-2.3-4.116a35.263,35.263,0,0,1-.5-6.384,12.581,12.581,0,0,1,.252-2.744,2.438,2.438,0,0,0,.224-.784c0-.2-.2-.392-.448-.5A12.119,12.119,0,0,0,99.036-19.46Zm14.336,3.976a18.866,18.866,0,0,1,5.236,9.772c.056.336.252.42.588.308a9.5,9.5,0,0,0,2.184-1.12c.224-.14.392-.252.308-.616a18.515,18.515,0,0,0-5.488-9.576.431.431,0,0,0-.308-.168.831.831,0,0,0-.308.112C115.136-16.548,114.436-16.156,113.372-15.484Zm16.072.84a16.278,16.278,0,0,0,1.792,2.912c.308.42.532.588.812.588.14,0,.364-.084.756-.42a17.822,17.822,0,0,1,1.932-1.008c4.256-1.876,7.588-2.884,10.108-2.884,3.108,0,4.816,1.624,4.816,4.256,0,2.576-1.484,4.368-3.864,5.572a26.3,26.3,0,0,1-7.588,2.072,5.2,5.2,0,0,1,1.96,2.212c.2.532.42.56.98.448A23.823,23.823,0,0,0,148.26-3.22c3.332-1.792,4.928-4.116,4.928-7.784,0-4.4-3.22-7.42-8.232-7.42-2.268,0-5.768.868-10.08,2.324A24.841,24.841,0,0,1,129.444-14.644Zm49.924-4.788a13.893,13.893,0,0,1,2.828,3.248.293.293,0,0,0,.476.084l1.176-.868a.282.282,0,0,0,.084-.448,12.887,12.887,0,0,0-2.66-3c-.168-.14-.28-.168-.42-.056Zm2.576-1.848a13.246,13.246,0,0,1,2.8,3.22.287.287,0,0,0,.476.084l1.12-.868a.324.324,0,0,0,.084-.5,11.693,11.693,0,0,0-2.66-2.884c-.168-.14-.252-.168-.42-.056ZM171.808-17.5c.2-.7.392-1.652.672-2.66a5.331,5.331,0,0,1,.588-1.12.673.673,0,0,0,.14-.448.466.466,0,0,0-.308-.448,16.319,16.319,0,0,0-3.528-.784,19.266,19.266,0,0,1-.168,2.576c-.2,1.148-.42,2.38-.7,3.5a37.84,37.84,0,0,1-4.536.28,12.922,12.922,0,0,1-2.072-.084c.14,1.008.28,1.96.392,2.548.056.364.168.448.588.448,1.316,0,3.276-.14,4.9-.308A105.1,105.1,0,0,1,162.932-.728a.451.451,0,0,0,.224.56c.588.336,1.96.924,2.24,1.036.308.084.476.112.616-.28,1.792-4.648,3.22-8.932,5.124-15.148a44.714,44.714,0,0,0,4.872-1.064c.364-.084.448-.168.42-.532-.028-.588-.112-1.4-.2-2.016-.028-.224-.14-.364-.448-.28C174.412-18.06,172.9-17.7,171.808-17.5Zm.5,12.852a5.461,5.461,0,0,0,1.26,3.836c1.26,1.316,3.164,1.82,6.748,1.82A30.938,30.938,0,0,0,184.212.7c.448-.028.476-.112.448-.448a17.5,17.5,0,0,0-.224-2.436c-.028-.224-.112-.28-.336-.252a41.86,41.86,0,0,1-4.7.392c-2.688,0-4.06-.588-4.284-2.632-.028-.28-.14-.392-.42-.392A14.261,14.261,0,0,0,172.312-4.648ZM174.5-9.94a30.986,30.986,0,0,1,5.628-.644,18.724,18.724,0,0,1,3.472.336c.392.084.532-.028.532-.5a19.76,19.76,0,0,0-.028-2.24c0-.336-.084-.364-.476-.42a20.39,20.39,0,0,0-3.276-.28,29.243,29.243,0,0,0-5.46.644c-.42.084-.5.168-.5.56C174.384-11.928,174.44-10.92,174.5-9.94Zm21.336-.952a14.311,14.311,0,0,0,1.512,2.716c.28.336.476.5.728.5a.876.876,0,0,0,.56-.28A8.987,8.987,0,0,1,200.2-8.82c3.052-1.232,5.992-2.184,7.924-2.184,2.24,0,3.472,1.092,3.472,3.08a4.379,4.379,0,0,1-2.52,4.172,20.347,20.347,0,0,1-6.748,1.932A5.88,5.88,0,0,1,204.036.028c.2.364.42.476.924.392a15.19,15.19,0,0,0,5.8-1.848c2.66-1.428,4-3.416,4-6.272,0-3.5-2.576-5.992-6.384-5.992a27.521,27.521,0,0,0-8.176,1.708A30.139,30.139,0,0,1,195.832-10.892Zm42.756-5.992c-3.388,2.212-5.376,4.9-5.376,8.876,0,5.824,5.4,8.652,10.332,8.652.336,0,.448-.168.532-.588a9.96,9.96,0,0,0,.308-2.408c0-.308-.168-.42-.616-.42-4.872-.308-7.448-2.268-7.448-5.88,0-3.36,2.38-6.636,7.14-8.26a12.493,12.493,0,0,1,3.416-.616c.364,0,.532-.084.532-.42a16,16,0,0,0-.308-2.464c-.028-.2-.168-.364-.588-.308-7.224.952-13.384,1.876-16.828,2.38a38.627,38.627,0,0,1-4.452.476,19.512,19.512,0,0,0,1.036,3.024.655.655,0,0,0,.532.42,1.635,1.635,0,0,0,.616-.224c.42-.14.7-.2,1.764-.448,3-.616,5.992-1.2,9.408-1.848ZM255.752-3.472c-.14.168-.2.252-.2.336s.084.168.252.28A20.906,20.906,0,0,1,261.1,2.492c.14.224.252.28.392.28.084,0,.2-.084.392-.252l1.708-1.456c.224-.2.28-.308.28-.448,0-.112-.028-.2-.2-.42A20.847,20.847,0,0,0,258.1-4.928a.565.565,0,0,0-.364-.168.6.6,0,0,0-.42.224ZM12.712,36.456h2.8c2.66,0,5.516-.056,8.484-.252.5-.028.532-.056.5-1.288-.028-1.372-.056-1.4-.56-1.372-3.08.224-5.908.308-8.568.308a51.764,51.764,0,0,1-5.88-.2c-.84-.112-.98-.28-.98-1.4v-1.54h13.86c2.548,0,3.388.056,3.556.056.28,0,.308-.028.308-.308V28.42c0-.28-.028-.308-.308-.308-.168,0-1.008.056-3.556.056H15.4a5.4,5.4,0,0,1,.14-1.652,3.018,3.018,0,0,0,.168-.56c0-.14-.14-.252-.448-.28-1.008-.084-1.96-.14-2.968-.14a12.29,12.29,0,0,1,.2,2.576v.056H5.712c-2.548,0-3.388-.056-3.556-.056-.28,0-.308.028-.308.308v2.044c0,.28.028.308.308.308.168,0,.98-.056,3.416-.056V33.18c0,1.932.672,2.66,2.1,2.968a20.481,20.481,0,0,0,3.556.308,14.879,14.879,0,0,1-1.036,2.324l-.224.364H5.292c-2.464,0-3.3-.056-3.472-.056-.252,0-.28.028-.28.308V41.44c0,.28.028.308.28.308.168,0,1.008-.056,3.472-.056H8.26c-.532.756-1.092,1.456-1.484,1.96a16.185,16.185,0,0,1-1.484,1.624c-.112.112-.168.2-.168.28,0,.112.112.224.336.28l1.792.5c.476.14.56.14.784-.084l.588-.672c1.232.308,2.408.616,3.612.952-2.492,1.036-5.852,1.6-10.472,1.82a9.23,9.23,0,0,1,1.008,1.9c.308.784.308.784,1.2.728,5.32-.532,9.1-1.456,11.9-3.276a68.039,68.039,0,0,1,7.756,3.276c.28.168.392.14.672-.252L25.424,49c.2-.308.14-.448-.14-.56-2.548-1.092-4.844-1.988-7.056-2.744a15.052,15.052,0,0,0,2.632-4h2.184c2.464,0,3.3.056,3.472.056.252,0,.28-.028.28-.308V39.4c0-.28-.028-.308-.28-.308-.168,0-1.008.056-3.472.056h-9.8a4.728,4.728,0,0,1,.9-1.4c.168-.14.308-.252.308-.42,0-.2-.112-.28-.364-.364Zm4.9,5.236a10.594,10.594,0,0,1-2.436,3.08c-1.624-.448-3.248-.84-4.956-1.148.476-.616.952-1.26,1.4-1.932ZM49.5,26.8c-2.212,0-2.912-.056-3.08-.056-.308,0-.336.028-.336.308,0,.2.056,1.148.056,3.276v7.392c0,2.044-.056,3.024-.056,3.248l-1.484.868c-.28.168-.308.28-.14.476a15.565,15.565,0,0,1,2.8,3.64c.084.14.14.2.224.2a.777.777,0,0,0,.364-.168l1.624-1.008c.308-.2.308-.28.168-.5A18.408,18.408,0,0,0,46.928,41.3c.448,0,1.2-.028,2.576-.028H53.48c2.184,0,2.912.056,3.108.056.28,0,.308-.028.308-.336,0-.168-.056-1.148-.056-3.276V30.324c0-2.128.056-3.108.056-3.276,0-.28-.028-.308-.308-.308-.2,0-.924.056-3.108.056Zm4.676,12.18h-5.4v-1.96h5.4Zm-5.4-9.884h5.4V31h-5.4Zm0,5.852V33.068h5.4v1.876Zm-10.22-5.628H37.184c-2.268,0-3-.056-3.164-.056-.28,0-.308.028-.308.308v1.988c0,.28.028.308.308.308.168,0,.9-.056,3.164-.056h.924a15.914,15.914,0,0,1-5.18,5.684,6.46,6.46,0,0,1,1.2,1.652c.224.42.364.616.56.616.14,0,.308-.112.56-.336a15.31,15.31,0,0,0,3.36-4.284c-.028,3.276-.112,5.544-.112,6.048,0,.308.028.336.308.336h2.128c.28,0,.308-.028.308-.336,0-.532-.084-3.08-.14-6.608a13.766,13.766,0,0,0,2.3,3.108c.252.28.42.42.56.42.168,0,.28-.2.448-.588a6.959,6.959,0,0,1,.98-1.652,14.933,14.933,0,0,1-3.864-4.06h.056c2.24,0,2.94.056,3.108.056.308,0,.336-.028.336-.308V29.568c0-.28-.028-.308-.336-.308-.168,0-.868.056-3.108.056h-.364V28.084a5.315,5.315,0,0,1,.14-1.6,1.742,1.742,0,0,0,.112-.448c0-.168-.112-.252-.364-.28-.924-.084-1.736-.112-2.716-.14a12.067,12.067,0,0,1,.168,2.492Zm4.676,15.092a3.155,3.155,0,0,1,.2-1.26.96.96,0,0,0,.112-.448c0-.14-.14-.252-.5-.308-.812-.084-1.932-.14-2.856-.14a15.653,15.653,0,0,1,.168,2.324v3.136c0,1.428.336,1.96.952,2.38.672.448,2.1.616,4.676.616,2.94,0,4.4-.112,5.432-.7.84-.476,1.288-1.176,1.54-3,.112-.756.14-.84-.588-.98a7.143,7.143,0,0,1-2.1-.812,3.491,3.491,0,0,1-.7,2.52c-.616.392-1.624.42-3.332.42a6.132,6.132,0,0,1-2.6-.308c-.28-.168-.392-.532-.392-1.092Zm9.94-1.092c-.364.2-.392.252-.2.5a17.6,17.6,0,0,1,2.884,5.264c.056.168.112.252.2.252a.777.777,0,0,0,.364-.168L58.3,48.076c.308-.2.336-.28.252-.5a21.753,21.753,0,0,0-3.052-5.04c-.168-.224-.252-.252-.588-.112ZM35.42,49.56a.536.536,0,0,0,.336.14c.084,0,.14-.056.224-.2a20.334,20.334,0,0,0,2.52-5.572c.084-.308.056-.364-.308-.5l-1.764-.672c-.364-.14-.42-.168-.5.14a15.323,15.323,0,0,1-2.352,4.956c-.168.2-.2.308.168.56ZM73.192,33.348c-1.092.168-2.128.308-3.3.42-1.232.112-2.464.2-3.7.2a25.582,25.582,0,0,0,.868,2.884.614.614,0,0,0,.9.364,8.228,8.228,0,0,1,1.54-.448c.756-.14,1.652-.308,2.744-.476a59.041,59.041,0,0,1-5.124,10.976.521.521,0,0,0-.112.308.576.576,0,0,0,.224.42,12.733,12.733,0,0,0,1.932,1.232.459.459,0,0,0,.728-.252,77.328,77.328,0,0,0,5.628-13.16,18.548,18.548,0,0,1,2.352-.2c1.232,0,1.6.616,1.6,2.6a21.572,21.572,0,0,1-1.092,6.944c-.448,1.148-.868,1.484-1.792,1.484a8.4,8.4,0,0,1-3.08-.616,8,8,0,0,1,.532,2.6.727.727,0,0,0,.5.784,9.142,9.142,0,0,0,2.772.308,4.008,4.008,0,0,0,3.78-2.632A24.045,24.045,0,0,0,82.6,38.108c0-3.388-1.428-5.18-4.06-5.18a21.115,21.115,0,0,0-2.184.112c.364-1.176.644-2.212,1.008-3.36a3.543,3.543,0,0,1,.56-1.064.583.583,0,0,0,.2-.42.59.59,0,0,0-.448-.56,20.493,20.493,0,0,0-3.36-.924,19.059,19.059,0,0,1-.28,3.108C73.836,30.772,73.64,31.752,73.192,33.348Zm9.968-.224a18.954,18.954,0,0,1,4.592,7.252c.084.336.364.364.644.224a11.427,11.427,0,0,0,2.1-1.4.4.4,0,0,0,.112-.56,18.739,18.739,0,0,0-4.648-6.8c-.2-.2-.336-.252-.532-.14A23.743,23.743,0,0,0,83.16,33.124Zm20.888-4.732a22.334,22.334,0,0,1,5.656,3.64c.14.14.224.2.336.2.084,0,.2-.084.308-.224a18.335,18.335,0,0,0,1.428-1.96.776.776,0,0,0,.14-.336c0-.112-.056-.2-.2-.308a18.366,18.366,0,0,0-5.488-3.332.468.468,0,0,0-.532.14A15.335,15.335,0,0,0,104.048,28.392Zm-1.96,3.892a17.447,17.447,0,0,1-.252,2.52c-.336,2.492-.7,5.8-.868,9.044,0,.392.112.448.392.56a19.252,19.252,0,0,0,1.9.756c.364.084.476.084.644-.2a7.662,7.662,0,0,1,1.2-1.54c2.632-2.66,5.6-4.256,8.064-4.256,2.408,0,3.36,1.372,3.36,2.884,0,1.792-1.036,3.248-3.3,4.228a23.233,23.233,0,0,1-7.7,1.568,7.163,7.163,0,0,1,1.9,2.38c.252.42.5.448,1.12.364a24.277,24.277,0,0,0,7.168-1.932c2.408-1.2,4.228-3.22,4.228-6.272,0-3.612-2.436-5.992-6.524-5.992-3.416,0-6.776,1.82-9.352,4.424a46.73,46.73,0,0,1,.672-5.1,5.25,5.25,0,0,1,.56-1.484.833.833,0,0,0,.14-.42c0-.224-.14-.392-.448-.532A15.753,15.753,0,0,0,102.088,32.284Zm43.568,9.744a11.685,11.685,0,0,0-2.24-.224c-2.828,0-4.9,1.652-4.9,3.948,0,2.408,1.792,3.92,5.012,3.92,3.3,0,4.9-1.288,5.124-3.64a16.627,16.627,0,0,1,3.024,2.24.387.387,0,0,0,.252.14.339.339,0,0,0,.252-.168,15.125,15.125,0,0,0,1.288-2.156c.14-.308.112-.392-.14-.56a18.325,18.325,0,0,0-4.648-2.688c-.14-2.408-.2-4.368-.2-7.5a31.553,31.553,0,0,0,4.312-.588c.2-.028.308-.168.308-.42a11.194,11.194,0,0,0-.168-1.988c-.056-.308-.112-.42-.448-.336-1.2.2-2.66.392-3.976.5,0-1.288,0-2.016.056-2.968a3.159,3.159,0,0,1,.224-.98,1.2,1.2,0,0,0,.168-.476c0-.252-.2-.392-.5-.476a15.587,15.587,0,0,0-3.388-.532,11.542,11.542,0,0,1,.364,2.744c0,1.036.028,1.932.028,2.94a40.506,40.506,0,0,1-6.384-.084,17.154,17.154,0,0,0,.2,2.548c.028.28.14.364.5.364a56.62,56.62,0,0,0,5.768.028C145.572,37.828,145.6,39.872,145.656,42.028Zm.056,2.66a3.944,3.944,0,0,1,.028.56c0,1.008-.9,1.82-2.3,1.82-1.652,0-2.268-.532-2.268-1.4s.784-1.344,2.1-1.344A7.8,7.8,0,0,1,145.712,44.688ZM132.72,27.132a14.09,14.09,0,0,1-.2,3.3,60.821,60.821,0,0,0-1.148,10.612,26.083,26.083,0,0,0,1.2,8.54c.14.392.252.42.56.336a11.727,11.727,0,0,0,2.1-.476c.252-.084.364-.168.336-.364A5.288,5.288,0,0,1,135.6,47.6a16.6,16.6,0,0,1,1.428-4.256.813.813,0,0,0,.168-.448.6.6,0,0,0-.168-.392,7.446,7.446,0,0,1-.98-1.764c-.588,1.4-1.176,2.6-1.736,3.892-.084-1.176-.084-2.464-.084-3.584a55.6,55.6,0,0,1,1.4-10.192,5.683,5.683,0,0,1,.5-1.54,1.429,1.429,0,0,0,.2-.616c0-.224-.112-.392-.42-.56A21.864,21.864,0,0,0,132.72,27.132Zm34.244-.224a18.616,18.616,0,0,1,.28,5.124c-.14,3.36-.392,7.392-.392,12.1,0,4.284,1.68,5.712,5.264,5.712a16,16,0,0,0,10.612-4.2c.448-.392.56-.616.56-.868a1.84,1.84,0,0,0-.224-.672,9.734,9.734,0,0,1-.644-2.66c-3.416,3.64-7.308,5.152-9.8,5.152-2.24,0-2.576-.532-2.576-3.556,0-3.3.112-5.88.42-10.752a16.783,16.783,0,0,1,.392-3.416,2.716,2.716,0,0,0,.28-.924c0-.28-.2-.42-.672-.532A28.96,28.96,0,0,0,166.964,26.908Zm10.5,3.388a13.893,13.893,0,0,1,2.828,3.248.292.292,0,0,0,.476.084l1.176-.868a.282.282,0,0,0,.084-.448,12.887,12.887,0,0,0-2.66-3c-.168-.14-.28-.168-.42-.056Zm2.576-1.848a13.246,13.246,0,0,1,2.8,3.22.287.287,0,0,0,.476.084l1.12-.868a.324.324,0,0,0,.084-.5,11.693,11.693,0,0,0-2.66-2.884c-.168-.14-.252-.168-.42-.056ZM204.372,42.84c-1.316-.112-1.988-.112-2.688-.112-3.388,0-5.6,1.708-5.6,3.976,0,2.324,2.072,3.92,5.712,3.92,3.836,0,5.656-1.232,5.684-4.256a22.217,22.217,0,0,1,5.572,3.192.429.429,0,0,0,.308.14.411.411,0,0,0,.364-.224,8.423,8.423,0,0,0,1.232-2.072c.084-.336.084-.42-.2-.672a24.965,24.965,0,0,0-7.42-3.388c-.084-1.288-.14-2.66-.2-3.948a50.714,50.714,0,0,0,5.488-.672c.308-.028.42-.112.42-.392,0-.84-.056-1.764-.084-2.3-.028-.252-.112-.308-.448-.224-2.016.308-3.36.588-5.488.728,0-1.008-.028-2.044-.028-3.164a57.279,57.279,0,0,0,6.468-.728c.224-.028.308-.084.308-.448a14.96,14.96,0,0,0-.14-2.044c-.028-.336-.14-.42-.476-.336a47.115,47.115,0,0,1-6.132.84c.028-.84.028-1.232.056-1.792a3.6,3.6,0,0,1,.42-1.344.571.571,0,0,0-.308-.84,16.224,16.224,0,0,0-3.528-.5,8.054,8.054,0,0,1,.336,1.876c.028.952.056,1.68.056,2.716a64.017,64.017,0,0,1-7.336-.28c.056,1.148.112,1.82.2,2.52.028.28.168.392.476.392a46.079,46.079,0,0,0,6.692.14c.028,1.064.028,2.156.056,3.22a39.4,39.4,0,0,1-6.3-.224,16.711,16.711,0,0,0,.168,2.38c.028.364.14.476.448.476a49.579,49.579,0,0,0,5.768.112C204.26,40.46,204.316,41.608,204.372,42.84Zm.056,2.66a2.687,2.687,0,0,1-.308,1.568,3.458,3.458,0,0,1-2.548.84c-1.932,0-2.772-.532-2.772-1.26,0-.9.98-1.484,3.024-1.484A12.076,12.076,0,0,1,204.428,45.5Zm31.248-8.316c2.128-2.044,4-4,6.048-5.992a4.519,4.519,0,0,1,1.232-.9.741.741,0,0,0,.476-.672.972.972,0,0,0-.308-.672,10.6,10.6,0,0,0-1.876-1.792,1,1,0,0,0-.644-.224,1.447,1.447,0,0,0-.532.224,7.429,7.429,0,0,1-1.54.42c-2.184.42-4.648.784-6.356.952a13.494,13.494,0,0,1-2.6-.056,13.407,13.407,0,0,0,.98,3.024.637.637,0,0,0,.616.476,2.054,2.054,0,0,0,.56-.14A8.619,8.619,0,0,1,232.9,31.5c1.736-.364,3.724-.756,5.4-1.064-1.288,1.6-2.6,3-4.34,4.788a67.4,67.4,0,0,1-6.636,6.188c-.224.224-.308.42-.14.644a12.6,12.6,0,0,0,1.652,1.82.688.688,0,0,0,.42.252c.14,0,.28-.112.476-.308.84-.84,1.624-1.652,2.436-2.38a11.4,11.4,0,0,1,7.168-2.968,4.088,4.088,0,0,1,4.4,4.228,4.218,4.218,0,0,1-2.856,4.256,5.1,5.1,0,0,0-5.264-4.088,3.716,3.716,0,0,0-3.948,3.416c0,2.6,2.128,4.116,5.656,4.116,5.992,0,9.772-3,9.772-7.672,0-4.032-2.856-6.72-6.944-6.72a8.426,8.426,0,0,0-4.452,1.26Zm2.436,10.472a6.13,6.13,0,0,1-1.288.112c-1.68,0-2.436-.588-2.436-1.456,0-.588.532-1.064,1.344-1.064C236.908,45.248,237.748,46.116,238.112,47.656Zm22.428-3.948a4.032,4.032,0,1,0,4.06,4.032A4.039,4.039,0,0,0,260.54,43.708Zm0,1.708a2.324,2.324,0,1,1-2.324,2.324A2.284,2.284,0,0,1,260.54,45.416Z" transform="translate(413 16029.28)" fill="#111"/>
    <path id="パス_136" data-name="パス 136" d="M10.58,0h3.059V-12.213H10.58v1.334a5.246,5.246,0,0,0-3.841-1.656c-3.174,0-5.75,2.622-5.75,6.44C.989-2.346,3.7.322,6.808.322a5.076,5.076,0,0,0,3.772-1.61ZM7.36-9.729a3.339,3.339,0,0,1,3.358,3.588A3.373,3.373,0,0,1,7.36-2.484,3.365,3.365,0,0,1,4.071-6.118,3.329,3.329,0,0,1,7.36-9.729Zm12.65-2.484H16.951V0H20.01V-5.2a5.994,5.994,0,0,1,.6-3.358,2.4,2.4,0,0,1,2.07-1.173c1.863,0,2.07,1.541,2.07,3.956V0h3.059V-8.349a4.02,4.02,0,0,0-4.186-4.186,5.439,5.439,0,0,0-3.611,1.564ZM40.02,0h3.059V-16.928H40.02v6.049a5.246,5.246,0,0,0-3.841-1.656c-3.174,0-5.75,2.622-5.75,6.44,0,3.749,2.714,6.417,5.819,6.417a5.076,5.076,0,0,0,3.772-1.61ZM36.8-9.729a3.339,3.339,0,0,1,3.358,3.588A3.373,3.373,0,0,1,36.8-2.484a3.365,3.365,0,0,1-3.289-3.634A3.329,3.329,0,0,1,36.8-9.729ZM58.328,0a5.138,5.138,0,0,0,3.979-1.426,4.483,4.483,0,0,0,1.426-3.4,4.417,4.417,0,0,0-2.9-4.255,3.85,3.85,0,0,0,1.725-3.174,3.977,3.977,0,0,0-1.978-3.45,8.153,8.153,0,0,0-4.163-.8H53.406V0Zm-.966-13.524c1.4,0,2.116.621,2.116,1.679,0,1.15-.759,1.794-2.231,1.794h-.69v-3.473Zm-.023,6.279c2.208,0,3.312.851,3.312,2.3,0,1.4-1.058,1.955-3.036,1.955H56.557V-7.245Zm18.17,3.657a3.953,3.953,0,0,1-3.036,1.2,3.268,3.268,0,0,1-3.427-2.829H78.89c0-.276.023-.414.023-.69a6.267,6.267,0,0,0-6.486-6.624,6.242,6.242,0,0,0-6.348,6.417A6.183,6.183,0,0,0,72.473.322a6.208,6.208,0,0,0,5.612-2.691ZM69.184-7.636a3.334,3.334,0,0,1,3.289-2.3,3.307,3.307,0,0,1,3.358,2.3ZM84.893-.92,82.386,4.462h3.151l7.682-16.675H90.068L86.549-4.554l-3.174-7.659H80.247ZM100.9-12.535a6.39,6.39,0,0,0-6.325,6.44A6.332,6.332,0,0,0,100.924.322a6.363,6.363,0,0,0,6.463-6.44A6.42,6.42,0,0,0,100.9-12.535Zm.046,2.9a3.3,3.3,0,0,1,3.358,3.542,3.306,3.306,0,0,1-3.358,3.519,3.259,3.259,0,0,1-3.289-3.542A3.3,3.3,0,0,1,100.947-9.637Zm12.213-2.576H110.1V0h3.059V-5.2a5.994,5.994,0,0,1,.6-3.358,2.4,2.4,0,0,1,2.07-1.173c1.863,0,2.07,1.541,2.07,3.956V0h3.059V-8.349a4.02,4.02,0,0,0-4.186-4.186,5.439,5.439,0,0,0-3.611,1.564ZM133.17,0h3.059V-16.928H133.17v6.049a5.246,5.246,0,0,0-3.841-1.656c-3.174,0-5.75,2.622-5.75,6.44,0,3.749,2.714,6.417,5.819,6.417a5.076,5.076,0,0,0,3.772-1.61Zm-3.22-9.729a3.339,3.339,0,0,1,3.358,3.588,3.373,3.373,0,0,1-3.358,3.657,3.365,3.365,0,0,1-3.289-3.634A3.329,3.329,0,0,1,129.95-9.729Zm29.578,4.738c-1.564,1.564-2.944,2.392-4.991,2.392a5.464,5.464,0,0,1-5.7-5.681,5.557,5.557,0,0,1,5.635-5.635,6.761,6.761,0,0,1,5.06,2.415l2.208-2.116a9.506,9.506,0,0,0-7.2-3.312,8.511,8.511,0,0,0-8.786,8.648,8.344,8.344,0,0,0,8.74,8.694c3.1,0,4.991-1.035,7.176-3.174Zm10.6-7.544a6.39,6.39,0,0,0-6.325,6.44A6.332,6.332,0,0,0,170.154.322a6.363,6.363,0,0,0,6.463-6.44A6.42,6.42,0,0,0,170.131-12.535Zm.046,2.9a3.3,3.3,0,0,1,3.358,3.542,3.306,3.306,0,0,1-3.358,3.519,3.259,3.259,0,0,1-3.289-3.542A3.3,3.3,0,0,1,170.177-9.637Zm20.056,3.611c0-2.507,1.1-3.7,2.645-3.7,1.38,0,2.093.989,2.093,2.99V0h3.059V-7.153c0-1.61-.092-2.944-.9-3.956a4.154,4.154,0,0,0-3.266-1.426,4.8,4.8,0,0,0-4.094,2.185,3.837,3.837,0,0,0-3.565-2.185,5.109,5.109,0,0,0-3.818,1.725v-1.4h-3.059V0h3.059V-5.98c0-2.507,1.1-3.749,2.622-3.749,1.7,0,2.162,1.449,2.162,3.818V0h3.059Zm14.007-6.187h-3.059V4.462h3.059v-5.75a5.113,5.113,0,0,0,3.772,1.61,6.1,6.1,0,0,0,5.842-6.417c0-3.818-2.622-6.44-5.773-6.44a5.246,5.246,0,0,0-3.841,1.656Zm3.22,2.484a3.347,3.347,0,0,1,3.312,3.611,3.383,3.383,0,0,1-3.312,3.634A3.385,3.385,0,0,1,204.1-6.141,3.326,3.326,0,0,1,207.46-9.729ZM225.63,0h3.059V-12.213H225.63v1.334a5.246,5.246,0,0,0-3.841-1.656c-3.174,0-5.75,2.622-5.75,6.44,0,3.749,2.714,6.417,5.819,6.417a5.076,5.076,0,0,0,3.772-1.61Zm-3.22-9.729a3.339,3.339,0,0,1,3.358,3.588,3.373,3.373,0,0,1-3.358,3.657,3.365,3.365,0,0,1-3.289-3.634A3.329,3.329,0,0,1,222.41-9.729Zm12.65-2.484H232V0h3.059V-5.2a5.994,5.994,0,0,1,.6-3.358,2.4,2.4,0,0,1,2.07-1.173c1.863,0,2.07,1.541,2.07,3.956V0h3.059V-8.349a4.02,4.02,0,0,0-4.186-4.186,5.438,5.438,0,0,0-3.611,1.564ZM249.343-.92l-2.507,5.382h3.151l7.682-16.675h-3.151L251-4.554l-3.174-7.659H244.7Z" transform="translate(413 16142.28)" fill="#d7003a"/>
  </g>
</svg>
